<?xml version="1.0" encoding="UTF-8"?>
<svg version="1.1" xmlns="http://www.w3.org/2000/svg" width="390" height="512">
<path d="M0 0 C9.79519533 10.05616857 13.36666298 20.82782765 13.2109375 34.65625 C11.95081648 54.63150176 -6.39987046 72.50245219 -17.76538086 87.89013672 C-23.36367473 95.47502206 -28.88358479 103.11518665 -34.39111328 110.76611328 C-37.63146195 115.26523169 -40.88027702 119.75824119 -44.12744141 124.25244141 C-46.82598022 127.987945 -49.52257953 131.7248148 -52.21484375 135.46484375 C-58.34756679 143.97920681 -64.53232789 152.45216202 -70.76708984 160.89208984 C-76.36432174 168.4766884 -81.88408627 176.1158833 -87.39111328 183.76611328 C-90.63146195 188.26523169 -93.88027702 192.75824119 -97.12744141 197.25244141 C-99.82598022 200.987945 -102.52257953 204.7248148 -105.21484375 208.46484375 C-111.34756679 216.97920681 -117.53232789 225.45216202 -123.76708984 233.89208984 C-129.36432174 241.4766884 -134.88408627 249.1158833 -140.39111328 256.76611328 C-143.63146195 261.26523169 -146.88027702 265.75824119 -150.12744141 270.25244141 C-152.82598022 273.987945 -155.52257953 277.7248148 -158.21484375 281.46484375 C-164.39132286 290.04016469 -170.60828297 298.5835757 -176.89453125 307.07885742 C-179.64650635 310.79842017 -182.38589114 314.52486508 -185.08203125 318.28515625 C-193.88034226 330.53978813 -201.74548774 339.95875154 -217.25 343.375 C-228.52280835 345.11065462 -240.3262202 343.39055757 -250 337 C-259.43656242 330.02374202 -266.08213836 320.72907121 -268 309 C-269.58941731 290.08397176 -263.00095589 278.69085333 -252 264 C-250.8511418 262.44137256 -249.70402083 260.88146319 -248.55859375 259.3203125 C-246.21367036 256.12654657 -243.86144857 252.93836704 -241.50390625 249.75390625 C-238.13448445 245.19407321 -234.81130287 240.60214121 -231.5 236 C-226.46006391 228.99774659 -221.35786473 222.04386551 -216.23046875 215.10546875 C-212.28584596 209.76142324 -208.38030944 204.39089219 -204.5 199 C-199.45992181 191.99784758 -194.35786615 185.04386744 -189.23046875 178.10546875 C-185.28584596 172.76142324 -181.38030944 167.39089219 -177.5 162 C-172.45992181 154.99784758 -167.35786615 148.04386744 -162.23046875 141.10546875 C-158.28584596 135.76142324 -154.38030944 130.39089219 -150.5 125 C-145.45992181 117.99784758 -140.35786615 111.04386744 -135.23046875 104.10546875 C-131.28584596 98.76142324 -127.38030944 93.39089219 -123.5 88 C-118.45992181 80.99784758 -113.35786615 74.04386744 -108.23046875 67.10546875 C-104.28584596 61.76142324 -100.38030944 56.39089219 -96.5 51 C-91.46526378 44.00526914 -86.37448122 37.05418935 -81.24365234 30.12963867 C-78.29282847 26.1402268 -75.37291487 22.13355304 -72.5078125 18.08203125 C-63.07062157 4.743379 -54.85893126 -6.2815401 -38.125 -10.4375 C-24.15848189 -12.61555829 -10.80485069 -9.07218094 0 0 Z " fill="#04BFC6" transform="translate(322,90)"/>
<path d="M0 0 C8.97638554 7.05567422 14.18134312 16.43840107 16.875 27.4375 C18.27401834 43.87596547 12.7847187 55.75302856 3.1875 68.75 C2.62611328 69.51892578 2.06472656 70.28785156 1.48632812 71.08007812 C-0.29485326 73.51613461 -2.08381527 75.94629141 -3.875 78.375 C-4.45523926 79.16293945 -5.03547852 79.95087891 -5.63330078 80.76269531 C-7.96614172 83.93013865 -10.29993745 87.09686176 -12.63793945 90.26049805 C-16.63054753 95.66721249 -20.57543907 101.10625953 -24.5 106.5625 C-26.0955185 108.77203304 -27.69276113 110.98029888 -29.29150391 113.1875 C-30.35559211 114.65747075 -31.41773828 116.12884908 -32.47802734 117.6015625 C-41.61361954 130.25557335 -50.12210184 141.22401872 -66.1875 144.75 C-79.49912562 146.70538003 -90.94580429 143.68988993 -101.84375 135.99609375 C-109.96892059 129.51158261 -114.48474248 120.37158813 -116.875 110.375 C-119.04208897 82.76572367 -100.61637458 64.46863039 -85.11816406 43.49780273 C-81.06200271 38.00437886 -77.05222644 32.47930733 -73.0625 26.9375 C-71.47961157 24.74744392 -69.89591612 22.55797371 -68.31201172 20.36865234 C-66.99317027 18.53894469 -65.68535178 16.70184496 -64.37890625 14.86328125 C-56.27703382 3.67230668 -48.12785214 -3.86486646 -34.390625 -7.234375 C-21.98903602 -9.16008757 -10.44215861 -7.04703054 0 0 Z " fill="#04BFC6" transform="translate(296.875,328.625)"/>
<path d="M0 0 C9.02254391 8.88373554 13.36247025 19.50575564 13.46875 32.125 C13.061683 54.95556668 -5.77693061 73.35620548 -18.72558594 90.87719727 C-22.78174729 96.37062114 -26.79152356 101.89569267 -30.78125 107.4375 C-32.36413843 109.62755608 -33.94783388 111.81702629 -35.53173828 114.00634766 C-36.85057973 115.83605531 -38.15839822 117.67315504 -39.46484375 119.51171875 C-47.56671618 130.70269332 -55.71589786 138.23986646 -69.453125 141.609375 C-80.8193144 143.37431124 -92.81482041 142.03584439 -102.34375 135.1875 C-103.57176738 134.14781302 -104.78090345 133.08535537 -105.96875 132 C-106.57203125 131.49855469 -107.1753125 130.99710938 -107.796875 130.48046875 C-116.05356703 123.10329391 -120.2087007 112.45727584 -121.18359375 101.609375 C-121.75121877 87.16899438 -114.87135317 76.17539264 -106.46875 65.0625 C-105.21929001 63.3885894 -103.97061022 61.71409619 -102.72265625 60.0390625 C-101.78123779 58.77884277 -101.78123779 58.77884277 -100.82080078 57.49316406 C-97.97908825 53.66775299 -95.19017212 49.80507369 -92.40625 45.9375 C-91.87523682 45.20104248 -91.34422363 44.46458496 -90.79711914 43.70581055 C-88.6398564 40.71286617 -86.48487406 37.71829319 -84.33203125 34.72216797 C-81.08828408 30.20808157 -77.83616133 25.70032371 -74.56835938 21.20361328 C-73.49671969 19.7273282 -72.4277315 18.24911496 -71.36132812 16.76904297 C-62.0911049 3.92745774 -53.5029683 -7.14028464 -37.09375 -10.375 C-23.2694222 -12.19585136 -10.78186477 -9.06301676 0 0 Z " fill="#04BFC6" transform="translate(196.96875,50)"/>
<path d="M0 0 C0.77214844 0.43570312 1.54429688 0.87140625 2.33984375 1.3203125 C11.65359575 6.992248 17.58076242 14.64951725 21 25 C24.42831645 39.18669997 22.50911758 50.55114965 15 63 C9.71431804 71.13655999 0.62459091 76.84826803 -8.62890625 79.50390625 C-21.2552577 82.14566347 -33.02441539 81.08659794 -44 74 C-52.6775742 67.49503327 -59.23700107 59.64127965 -62 49 C-62.99825039 38.62374175 -63.57902573 27.14195494 -58 18 C-57.36384766 16.85917969 -57.36384766 16.85917969 -56.71484375 15.6953125 C-51.49932362 7.06573323 -44.18925271 0.44161896 -34.7109375 -3.15234375 C-23.65936989 -5.67675446 -9.91420798 -6.05763752 0 0 Z " fill="#04BFC6" transform="translate(62,4)"/>
<path d="M0 0 C9.38131489 9.2692514 13.63720366 19.64757272 13.8515625 32.69921875 C13.7472909 44.82908632 9.71638239 54.44894972 1.2890625 63.26171875 C-9.11403113 72.77129514 -20.25029562 74.84047688 -33.859375 74.6015625 C-44.81216425 74.09060195 -54.16468949 68.32909073 -61.45703125 60.3515625 C-68.96408066 50.93498929 -72.04276692 40.16580828 -71.59375 28.1171875 C-70.18915156 17.18138537 -65.03396033 6.59976847 -56.7109375 -0.73828125 C-39.1491896 -13.35629652 -16.96214001 -14.56590118 0 0 Z " fill="#04BFC6" transform="translate(376.7109375,437.73828125)"/>
</svg>
